<?xml version="1.0" encoding="UTF-8" standalone="no"?>
<!-- Created with Inkscape (http://www.inkscape.org/) -->

<svg
   xmlns:dc="http://purl.org/dc/elements/1.1/"
   xmlns:cc="http://creativecommons.org/ns#"
   xmlns:rdf="http://www.w3.org/1999/02/22-rdf-syntax-ns#"
   xmlns:svg="http://www.w3.org/2000/svg"
   xmlns="http://www.w3.org/2000/svg"
   xmlns:sodipodi="http://sodipodi.sourceforge.net/DTD/sodipodi-0.dtd"
   xmlns:inkscape="http://www.inkscape.org/namespaces/inkscape"
   id="svg2"
   version="1.1"
   inkscape:version="0.47 r22583"
   width="1052.3622"
   height="744.09448"
   sodipodi:docname="bars.svg">
  <metadata
     id="metadata8">
    <rdf:RDF>
      <cc:Work
         rdf:about="">
        <dc:format>image/svg+xml</dc:format>
        <dc:type
           rdf:resource="http://purl.org/dc/dcmitype/StillImage" />
        <dc:title></dc:title>
      </cc:Work>
    </rdf:RDF>
  </metadata>
  <defs
     id="defs6">
    <linearGradient
       id="linearGradient5184">
      <stop
         style="stop-color:#ffffff;stop-opacity:1"
         offset="0"
         id="stop5186" />
      <stop
         style="stop-color:#ff59ff;stop-opacity:0;"
         offset="1"
         id="stop5188" />
    </linearGradient>
    <inkscape:perspective
       sodipodi:type="inkscape:persp3d"
       inkscape:vp_x="0 : 0.5 : 1"
       inkscape:vp_y="0 : 1000 : 0"
       inkscape:vp_z="1 : 0.5 : 1"
       inkscape:persp3d-origin="0.5 : 0.33333333 : 1"
       id="perspective10" />
    <inkscape:perspective
       id="perspective3615"
       inkscape:persp3d-origin="0.5 : 0.33333333 : 1"
       inkscape:vp_z="1 : 0.5 : 1"
       inkscape:vp_y="0 : 1000 : 0"
       inkscape:vp_x="0 : 0.5 : 1"
       sodipodi:type="inkscape:persp3d" />
  </defs>
  <sodipodi:namedview
     pagecolor="#000000"
     bordercolor="#666666"
     borderopacity="1"
     objecttolerance="10"
     gridtolerance="10"
     guidetolerance="10"
     inkscape:pageopacity="0"
     inkscape:pageshadow="2"
     inkscape:window-width="1280"
     inkscape:window-height="686"
     id="namedview4"
     showgrid="false"
     inkscape:snap-center="false"
     inkscape:snap-object-midpoints="false"
     showguides="true"
     inkscape:guide-bbox="true"
     inkscape:zoom="5.6568542"
     inkscape:cx="97.029166"
     inkscape:cy="119.60846"
     inkscape:window-x="0"
     inkscape:window-y="0"
     inkscape:window-maximized="1"
     inkscape:current-layer="svg2" />
  <rect
     transform="scale(1,-1)"
     ry="0"
     rx="11.970652"
     y="-571.72992"
     x="177.68431"
     height="20.931719"
     width="135.48087"
     id="rect2833"
     style="fill:#ff59ff;fill-opacity:1;fill-rule:evenodd;stroke:none" />
  <path
     style="fill:#000000"
     d=""
     id="path2818" />
  <path
     style="fill:#ff59ff;fill-opacity:1;fill-rule:evenodd;stroke:none"
     d="M 33.15625 487 C 26.846779 487 21.78125 492.26683 21.78125 498.78125 L 21.78125 512.1875 C 21.78125 518.70192 26.846779 523.9375 33.15625 523.9375 L 139.28125 523.9375 C 145.59072 523.9375 150.65625 518.70192 150.65625 512.1875 L 150.65625 498.78125 C 150.65625 492.26683 145.59072 487 139.28125 487 L 33.15625 487 z M 37.40625 489.53125 L 57.6875 489.53125 C 59.609923 489.53125 61.15625 490.95593 61.15625 492.71875 C 61.15625 494.48157 59.609923 495.90625 57.6875 495.90625 L 37.40625 495.90625 C 35.483827 495.90625 33.9375 494.48157 33.9375 492.71875 C 33.9375 490.95593 35.483827 489.53125 37.40625 489.53125 z "
     id="rect3621" />
  <rect
     transform="scale(1,-1)"
     ry="9.2340002"
     rx="8.4399996"
     y="-513.43988"
     x="172.6813"
     height="28.998016"
     width="128.98657"
     id="rect3627"
     style="fill:#ff59ff;fill-opacity:1;fill-rule:evenodd;stroke:none" />
  <rect
     style="fill:#ff59ff;fill-opacity:1;fill-rule:evenodd;stroke:none"
     id="rect3629"
     width="128.98657"
     height="23.627563"
     x="172.68173"
     y="-521.44183"
     rx="11.396838"
     ry="0"
     transform="scale(1,-1)" />
  <rect
     transform="scale(1,-1)"
     ry="11.733948"
     rx="10.440079"
     y="-570.47797"
     x="25.824926"
     height="28.998016"
     width="95.52272"
     id="rect5161"
     style="fill:#ff59ff;fill-opacity:1;fill-rule:evenodd;stroke:none" />
  <rect
     style="fill:#ff59ff;fill-opacity:1;fill-rule:evenodd;stroke:none"
     id="rect5163"
     width="102.57603"
     height="19.561699"
     x="22.184313"
     y="-578.47992"
     rx="9.0632868"
     ry="0"
     transform="scale(1,-1)" />
  <rect
     style="fill:#000000;fill-opacity:1;fill-rule:evenodd;stroke:none"
     id="rect5167"
     width="6.9401569"
     height="30.073561"
     x="121.34516"
     y="548.40265"
     rx="3.4700785"
     ry="4.6921997" />
  <rect
     ry="4.6921997"
     rx="3.4700785"
     y="548.39874"
     x="18.884224"
     height="30.073561"
     width="6.9401569"
     id="rect2829"
     style="fill:#000000;fill-opacity:1;fill-rule:evenodd;stroke:none" />
  <rect
     style="fill:#ff59ff;fill-opacity:1;fill-rule:evenodd;stroke:none"
     id="rect2831"
     width="128.451"
     height="28.998016"
     x="181.32492"
     y="-563.72797"
     rx="10.44"
     ry="11.734"
     transform="scale(1,-1)" />
  <rect
     ry="4.6921997"
     rx="3.4700785"
     y="541.6579"
     x="309.77701"
     height="30.073561"
     width="6.9401569"
     id="rect2835"
     style="fill:#000000;fill-opacity:1;fill-rule:evenodd;stroke:none" />
  <rect
     style="fill:#000000;fill-opacity:1;fill-rule:evenodd;stroke:none"
     id="rect2837"
     width="6.9401569"
     height="30.073561"
     x="174.38423"
     y="541.6579"
     rx="3.4700785"
     ry="4.6921997" />
  <path
     style="fill:#008080;fill-opacity:1;fill-rule:evenodd;stroke:none"
     d="m 497.63621,671.44612 c -6.28763,0 -11.34375,4.13439 -11.34375,9.25 l 0,10.15625 0,0.375 0,12.53125 c 0,2.59948 -1.54633,4.6875 -3.46875,4.6875 l 135.28125,0 c -1.8776,-0.0684 -3.375,-2.13152 -3.375,-4.6875 l 0,-12.53125 0,-0.375 0,-10.15625 c 0,-5.11561 -5.05612,-9.25 -11.34375,-9.25 l -105.75,0 z m -14.8125,37 c -0.063,0 -0.12537,-0.0268 -0.1875,-0.0312 l 0,0.0312 0.1875,0 z"
     id="rect2858"
     inkscape:export-filename="/Users/mateus/RailsApps/remember_to/public/public/images/navbar/navbar_hover_large.png"
     inkscape:export-xdpi="90"
     inkscape:export-ydpi="90" />
  <path
     style="fill:#008080;fill-opacity:1;fill-rule:evenodd;stroke:none"
     d="m 358.32371,672.53987 c -4.6758,0 -8.4375,4.13439 -8.4375,9.25 l 0,10.15625 0,0.375 0,12.53125 c 0,2.59948 -1.57758,4.6875 -3.5,4.6875 l 102.40625,0 c -1.89256,-0.046 -3.40625,-2.11702 -3.40625,-4.6875 l 0,-12.53125 0,-0.375 0,-10.15625 c 0,-5.11561 -3.7617,-9.25 -8.4375,-9.25 l -78.625,0 z m -11.9375,37 c -0.0551,0 -0.10181,-0.0278 -0.15625,-0.0312 l 0,0.0312 0.15625,0 z"
     id="rect2860"
     inkscape:export-filename="/Users/mateus/RailsApps/remember_to/public/public/images/navbar/navbar_hover_small.png"
     inkscape:export-xdpi="90"
     inkscape:export-ydpi="90" />
  <path
     style="fill:#ff8080;fill-opacity:1;fill-rule:evenodd;stroke:none"
     d="M 181.25 604.21875 C 175.46624 604.21875 170.8125 609.46811 170.8125 615.96875 L 170.8125 620.3125 L 170.8125 621.5 L 170.8125 636.53125 C 170.8125 639.13073 169.26617 641.21875 167.34375 641.21875 L 302.65625 641.21875 C 300.77677 641.15313 299.28125 639.08905 299.28125 636.53125 L 299.28125 621.5 L 299.28125 620.3125 L 299.28125 615.96875 C 299.28125 609.46811 294.62751 604.21875 288.84375 604.21875 L 181.25 604.21875 z M 167.34375 641.21875 C 167.28867 641.21875 167.24194 641.1909 167.1875 641.1875 L 167.1875 641.21875 L 167.34375 641.21875 z "
     id="rect2885"
     inkscape:export-filename="/Users/mateus/RailsApps/remember_to/public/public/images/navbar/navbar_hover_large.png"
     inkscape:export-xdpi="90"
     inkscape:export-ydpi="90" />
  <path
     style="fill:#ff8080;fill-opacity:1;fill-rule:evenodd;stroke:none"
     d="M 35.75 604.46875 C 29.966196 604.46875 25.3125 609.71814 25.3125 616.21875 L 25.3125 621.75 C 25.3125 621.80331 25.311876 621.85311 25.3125 621.90625 L 25.3125 636.78125 C 25.3125 639.38073 23.766173 641.46875 21.84375 641.46875 L 124.25 641.46875 C 122.35744 641.42277 120.84375 639.35173 120.84375 636.78125 L 120.84375 621.90625 C 120.84437 621.85311 120.84375 621.80331 120.84375 621.75 L 120.84375 616.21875 C 120.84375 609.71814 116.19005 604.46875 110.40625 604.46875 L 35.75 604.46875 z M 21.84375 641.46875 C 21.78867 641.46875 21.741937 641.4409 21.6875 641.4375 L 21.6875 641.46875 L 21.84375 641.46875 z "
     id="rect2887"
     inkscape:export-filename="/Users/mateus/RailsApps/remember_to/public/public/images/navbar/navbar_hover_small.png"
     inkscape:export-xdpi="90"
     inkscape:export-ydpi="90" />
</svg>
